<svg height="45" viewBox="0 0 49 45" width="49" xmlns="http://www.w3.org/2000/svg"><path d="m46.2585113 31.826561v-1.7774329c0-.1065872-.0078025-.2128068-.0189488-.3179238.1772271-.105117.3418217-.2212603.491183-.3491648.6617222-.5660147 1.0109748-1.3132275 1.0102317-2.1607792-.0003715-.7251604-.2701134-1.4165068-.7364028-1.9505452.3659721-.4300242.5740375-.9776617.5632627-1.5480868-.0189488-1.0133131-.6940467-1.8770368-1.6162223-2.1953281.1913459-.3947401.2983509-.8365255.2983509-1.3025687v-.5178667c1.3665439-.0940907 2.449227-1.2231796 2.449227-2.5981541 0-.1988402-.0423561-4.9217543-3.7254853-9.40613385-1.8718454-2.27912768-4.3496815-4.08412627-7.3655151-5.36500998-3.6478322-1.54918939-8.1086058-2.33572918-13.2589675-2.33756687-6.4868103.0022053-11.8433797 1.24302696-15.92108998 3.68718095-.3377347.20251565-.4454829.6369502-.24113291.9706783.20472142.3337281.64388807.44068283.98125126.23816719 3.85181073-2.30853104 8.95944473-3.48025481 15.18097163-3.48246001 4.9553004.00183768 9.2262143.74941799 12.6953332 2.22289378 2.8010805 1.1897333 5.0957446 2.85763867 6.8200865 4.95740597 3.366944 4.09919542 3.4055847 8.33658672 3.4055847 8.51484452 0 .657165-.5402269 1.1915711-1.20455 1.1915711h-43.43216573c-.66432309 0-1.20454999-.5344061-1.20454999-1.1915711 0-.1775228.02340729-1.7994854.84043555-4.0286274.89356655-2.4390084 2.3474235-4.56009313 4.32032938-6.30407971.29426392-.26021971.31990052-.70715073.05684641-.99787645-.26305411-.29109323-.71448164-.31608608-1.00874556-.05623389-5.57355194 4.92726755-5.63782926 11.12549515-5.63782926 11.38681745 0 1.3749745 1.08268312 2.5040634 2.44885545 2.5981541v.5178667c0 .4700861.10923429.9155471.30355254 1.3128599-.34962416.1234941-.67175401.3241719-.93555125.5899048-.45402838.4575897-.69739061 1.0563157-.68550116 1.6851799.01003175.5450647.20732236 1.0548455.5439424 1.4591416-.46591783.5340385-.73528828 1.2253849-.7356598 1.9494426-.00074305.8475517.34850959 1.5947645 1.01023184 2.1607792.15864989.1356229.33476234.2580144.52425052.3679095-.01003175.0992362-.01671952.1988401-.01671952.2991791v1.7759627c-1.37025927.0904154-2.45740102 1.2209745-2.45740102 2.5988893 0 5.8317883 4.79627896 10.5760199 10.6912176 10.5760199h27.3167575c5.8949386 0 10.6912176-4.7442316 10.6912176-10.5760199 0-1.3720342-1.0782247-2.4992854-2.4406814-2.5974191zm-.4622024-3.5137012c-.6568922.5619717-1.8610708.7957285-3.1432737.6101197-.9076854-.13158-1.3854926-.3815085-1.8911659-.6465062-.1162937-.0606445-.233702-.1223916-.356312-.1823008l1.6229102-1.6340917c.2024921-.2039858.4844951-.3208641.7739289-.3208641h2.3243877c.2221842 0 .4406528-.0297708.6531768-.0889452.3336477.2932986.5320529.7203823.5324244 1.1720913 0 .4303917-.1735117.7975661-.5160764 1.090497zm-41.91849006-8.5986441h40.94355506v.5105158c0 .5487401-.2790306 1.0338955-.703707 1.3249887-.0118894.0084535-.0241504.0161719-.0364114.0238903-.0304668.0198473-.0616766.0385918-.0932579.0562338-.0111464.0062483-.0219212.0124965-.032696.0183772-.0404984.0213175-.08174.0411647-.1240962.0591742-.0026007.0011027-.00483.0022053-.0070593.003308-.0471863.0194797-.0954871.0371217-.1449027.0521909-.0055732.0018377-.0111463.0033078-.0167195.004778-.0412416.0124965-.0832262.0231552-.1259539.0319762-.0133757.0029403-.0263798.0055131-.0397553.008086-.036783.0066157-.0739376.0124963-.1114637.0169068-.0141187.0014702-.0278658.0033079-.0419846.0047781-.0501587.0047781-.1006888.0077184-.151962.0077184h-37.68398759c-.89839671 0-1.62959797-.7233226-1.62959797-1.6120391zm-1.04107003 3.4034385c.19431824-.1955322.46220242-.3080001.7356598-.3080001h.34702331c.46331708.2793319 1.00688796.4406828 1.58835641.4406828h37.68361607c.0635342 0 .1263254-.0025728.188745-.0062483.0200634-.0011025.0397554-.0029403.0594473-.0044104.0438423-.0036754.0876847-.0080859.1311554-.0135991.0211782-.0025728.0427278-.004778.0639058-.0077183.0557319-.0080859.1110921-.0172745.1657093-.0283008.0230358-.0047781.0457-.0102911.0687359-.0154368.037526-.0084534.0750521-.0172744.1122067-.027198.0282374-.0073509.0564749-.0154368.0843408-.0235227.0300951-.008821.0598187-.0187447.0895424-.0283007.028609-.0091886.0568465-.0183772.0850839-.0283008.0486724-.0180096.0969733-.0367542.1445311-.0566014.028609-.0121289.0568465-.0253605.0850839-.0382244.0267513-.0121289.053131-.0246253.0791392-.0374893.0278659-.0139666.0557318-.0275656.0832262-.0422673.0312097-.0165394.062048-.0341815.0928863-.0518235.0185772-.0106587.037526-.0202148.0561034-.031241h.389751c.5242505 0 .958587.4215706.9682473.9394372.0070592.3609263-.215868.7038429-.5673498.8729122h-.0003715c-.1430451.0687303-.2927779.1040143-.4447399.1040143h-2.3247593c-.6698963 0-1.3234445.2708785-1.7930778.743905l-2.8961961 2.9160779c-.6903313.6953894-1.7849038.7894802-2.5840979.2547066-.0174627-.0117614-.0345537-.0235227-.0516449-.0356516-.0445854-.0316085-.0887992-.0646874-.131527-.1007065 0-.0003675-.0003716-.0007351-.0007431-.0007351l-3.7511219-3.1796055c-.455143-.3855515-1.0358684-.5979908-1.6351711-.5979908h-26.43025031c-.14713196 0-.28980538-.0334462-.42467637-.0988687h-.00037152c-.32844609-.1595132-.53651149-.4818475-.54319936-.840936-.00483006-.2462531.09362953-.4836853.27680137-.6685589zm-.46814715 4.1043411c0-.4487687.19654747-.8736472.52722279-1.1669457.20509303.0558663.41650241.0841671.63237024.0841671h26.43025031c.2589671 0 .5093887.0918855.7059362.2580144l2.9664181 2.5147222c-.0594473.0022052-.1214954.0033078-.1857727.0033078-.9403813 0-1.3680299-.2532363-1.909-.5737329-.6130498-.3631315-1.3078396-.7747785-2.6435452-.7747785-1.335334 0-2.0301238.411647-2.6431737.7747785-.54097.3204966-.9682471.5737329-1.909.5737329-.9407528 0-1.36803-.2532363-1.909-.5737329-.6130498-.3631315-1.3078397-.7747785-2.6431736-.7747785-1.3357056 0-2.0304955.411647-2.6435453.7747785-.54097.3204966-.9682472.5737329-1.9089999.5737329-.940753 0-1.3680301-.2532363-1.9090001-.5737329-.6130499-.3631315-1.3078397-.7747785-2.6435452-.7747785-1.41112926 0-2.09960277.3609262-2.76541205.7097236-.50530168.2646302-.98273753.5149262-1.89042276.6461387-1.28220304.1856086-2.48638161-.048148-3.14290218-.6097522-.34256486-.2929309-.51607647-.6601053-.51570495-1.0908645zm35.63937344 16.3648059h-27.3167575c-5.10726249 0-9.26225412-4.1105893-9.26225412-9.1628211 0-.6571651.5402269-1.1915711 1.20454999-1.1915711h32.02832423c.3945811 0 .7144817-.3164536.7144817-.7067832s-.3199006-.7067832-.7144817-.7067832h-30.77547329v-1.5477192c.40609905.0837996.83857784.1279046 1.28777624.1279046.34553714 0 .70073449-.0257279 1.0603904-.0775514 1.15141908-.166864 1.78936242-.5009596 2.35225366-.7957283.58146846-.3046922 1.04069851-.5454323 2.09663039-.5454323.9403813 0 1.36803.2532364 1.9090001.573733.6130498.3631316 1.3078396.7747786 2.6435452.7747786 1.3353339 0 2.0301238-.411647 2.6431736-.7747786.54097-.3204966.9682472-.573733 1.9090001-.573733.9407528 0 1.3680299.2532364 1.9089999.573733.6130499.3631316 1.3078397.7747786 2.6435453.7747786 1.3353339 0 2.0301238-.411647 2.6431736-.7747786.54097-.3204966.9682472-.573733 1.909-.573733.9407529 0 1.3680301.2532364 1.9090001.573733.6130498.3631316 1.3078397.7747786 2.6431736.7747786.6360857 0 1.1696248-.0911504 1.6823574-.2874179.4833805.236697 1.0098603.3550456 1.5363401.3550456.8995112 0 1.7967933-.3432842 2.4689188-1.019929l.1998915-.2010454c.2686272.0937232.5030723.2153796.7616679.350635.5628912.2947686 1.2008346.6284967 2.3522537.7953607.3596559.052191.7148532.0775514 1.0603903.0775514.4622025 0 .9065707-.0466777 1.323073-.1352554v1.55507h-6.8434938c-.3945812 0-.7144817.3164536-.7144817.7067832s.3199005.7067832.7144817.7067832h8.0792537c.6643231 0 1.2049216.534406 1.2049216 1.1915711-.0003716 5.0522318-4.1553632 9.1628211-9.2626257 9.1628211z" fill="#f56d54"/></svg>