<svg height="45" viewBox="0 0 45 45" width="45" xmlns="http://www.w3.org/2000/svg"><g fill="none" fill-rule="evenodd"><path d="m4.03073894 15.5240478c.09177079.1138464.21225069.1710742.33273052.1710742.12047989 0 .24095978-.0569233.332976-.1710742.18378701-.2279974.18378701-.5978464 0-.8258438l-1.14296392-1.4179065 1.14296392-1.417602c.18378701-.2283019.18378701-.5978464 0-.8258437-.18378707-.2279975-.48191951-.2279975-.66570652 0l-1.4756945 1.8306761c-.08833555.1095848-.13790158.2581332-.13790158.4127696 0 .1549409.04956603.3034893.13790158.4130742zm8.12709616-2.2435981-1.1428914 1.4178171c-.1837753.2279831-.1837753.5978087.0002454.8257917.091765.1138393.2122372.1710635.3327094.1710635.1204723 0 .2409445-.0572242.3327095-.1710635l1.4758462-1.8308651c.1837754-.227983.1837754-.5978087 0-.8254873l-1.4758462-1.8308651c-.1837754-.2279831-.4816435-.2279831-.6654189 0-.1840207.2282874-.1840207.5978086 0 .8257917zm-4.56281343 2.3741903c.06492544.0273938.13210923.040482.19788154.040482.21623009 0 .42032186-.1406213.50416046-.3704243l1.33379506-3.6613252c.10952646-.3001135-.02766386-.6388828-.30599658-.7569803-.27805039-.117793-.59251555.0298288-.70175966.3299424l-1.33407741 3.6613251c-.10924418.3001137.02766387.6391873.30599659.7569803zm-4.48629822 4.8697502h4.65969586c.38184773 0 .69158069-.2702855.69158069-.6038158 0-.3332158-.30973296-.6035012-.69158069-.6035012h-4.65969586c-.38220819 0-.69158059.2702854-.69158059.6035012 0 .3335303.3093724.6038158.69158059.6038158zm15.53995975-1.6243902h-7.237685c-.3373551 0-.6109982.2702854-.6109982.6035012 0 .3335304.2736431.6038159.6109982.6038159h7.237685c.3376737 0 .6113168-.2702855.6113168-.6038159 0-.3332158-.2736431-.6035012-.6113168-.6035012zm10.8 0h-7.237685c-.3373551 0-.6109982.2702854-.6109982.6035012 0 .3335304.2736431.6038159.6109982.6038159h7.237685c.3376737 0 .6113168-.2702855.6113168-.6038159 0-.3332158-.2736431-.6035012-.6113168-.6035012zm2.16 2.4146341h-7.237685c-.3373551 0-.6109982.2702855-.6109982.6035012 0 .3335304.2736431.6038159.6109982.6038159h7.237685c.3376737 0 .6113168-.2702855.6113168-.6038159 0-.3332157-.2736431-.6035012-.6113168-.6035012zm-28.6952252 1.6243903h1.42451257c.27403431 0 .49631514-.2702855.49631514-.6038159 0-.3332157-.22228083-.6035012-.49631514-.6035012h-1.42451257c-.27429299 0-.49631514.2702855-.49631514.6035012 0 .3335304.22202215.6038159.49631514.6038159zm13.0314273-1.3390244c-.3564017 0-.6448853.2702855-.6448853.6035012 0 .3335304.2884836.6038159.6448853.6038159h1.1270361c.3564016 0 .6452215-.2702855.6452215-.6038159 0-.3332157-.2888199-.6035012-.6452215-.6035012zm18 0c-.3564017 0-.6448853.2702855-.6448853.6035012 0 .3335304.2884836.6038159.6448853.6038159h1.1270361c.3564016 0 .6452215-.2702855.6452215-.6038159 0-.3332157-.2888199-.6035012-.6452215-.6035012zm-20.6505996.7352085c0-.3332157-.25568-.6035012-.5708896-.6035012h-4.90107793c-.31550734 0-.5708896.2702855-.5708896.6035012 0 .3335304.25538226.6038159.5708896.6038159h4.90107793c.3152096 0 .5708896-.2702855.5708896-.6038159zm6.0428572 0c0 .3335304.2052516.6038159.4582917.6038159h1.5003203c.2532791 0 .4585308-.2702855.4585308-.6038159 0-.3332157-.2052517-.6035012-.4585308-.6035012h-1.5003203c-.2530401 0-.4582917.2702855-.4582917.6035012zm-4.169173-7.8474036h2.2954886c.3673891 0 .6651129-.2702855.6651129-.6038159 0-.3332158-.2977238-.6035012-.6651129-.6035012h-2.2954886c-.367389 0-.6651128.2702854-.6651128.6035012 0 .3335304.2977238.6038159.6651128.6038159zm4.8505649 0h14.3489997c.3763812 0 .6810369-.2702855.6810369-.6038159 0-.3332158-.3046557-.6035012-.6810369-.6035012h-14.3489997c-.3763812 0-.6813919.2702854-.6813919.6035012 0 .3335304.3050107.6038159.6813919.6038159zm10.8307205 1.2073171h-4.8956534c-.3167073 0-.5736019.2702854-.5736019.6038158 0 .3332157.2568946.6035012.5736019.6035012h4.8956534c.3167071 0 .5736018-.2702855.5736018-.6035012 0-.3335304-.2568947-.6038158-.5736018-.6038158zm-7.1677432 0h-1.4373098c-.2707568 0-.4899166.2702854-.4899166.6038158 0 .3332157.2191598.6035012.4899166.6035012h1.4373098c.2707568 0 .4899165-.2702855.4899165-.6035012 0-.3335304-.2191597-.6038158-.4899165-.6038158zm-8.5206002 1.207317h4.7270905c.3631474 0 .6577119-.2702855.6577119-.6035012 0-.3335304-.2945645-.6038158-.6577119-.6038158h-4.7270905c-.3634904 0-.6580548.2702854-.6580548.6038158 0 .3332157.2945644.6035012.6580548.6035012zm.0903646 7.397561h-4.6593353c-.3822083 0-.6919412.270356-.6919412.6036586 0 .3333025.3097329.6036585.6919412.6036585h4.6593353c.3818477 0 .6915806-.270356.6915806-.6036585 0-.3333026-.3097329-.6036586-.6915806-.6036586zm12.5742857.1317073h-4.6593352c-.3822084 0-.6919413.270356-.6919413.6036586 0 .3333025.3097329.6036585.6919413.6036585h4.6593352c.3818477 0 .6915807-.270356.6915807-.6036585 0-.3333026-.309733-.6036586-.6915807-.6036586zm-21.24778668-.2853658h-3.4869797c-.37230032 0-.67365296.2703559-.67365296.6036585s.30135264.6036585.67365296.6036585h3.4869797c.3723005 0 .67365305-.2703559.67365305-.6036585s-.30135255-.6036585-.67365305-.6036585z" fill="#f5664d"/><path d="m20.7834035 24.3h-4.9239499c-.309187 0-.5594536.270356-.5594536.6036586 0 .3333025.2502666.6036585.5594536.6036585h4.9239499c.3088954 0 .5594536-.270356.5594536-.6036585 0-.3333026-.2505582-.6036586-.5594536-.6036586zm13.4742857.1317073h-4.9239499c-.309187 0-.5594536.270356-.5594536.6036586 0 .3333025.2502666.6036585.5594536.6036585h4.9239499c.3088954 0 .5594537-.270356.5594537-.6036585 0-.3333026-.2505583-.6036586-.5594537-.6036586z" fill="#f5664d"/><g fill="#f5654c" fill-rule="nonzero"><path d="m2.88047577 0c-1.58813393 0-2.88047577 1.29204968-2.88047577 2.88058498v31.66732842c0 1.5881941 1.29234184 2.8802438 2.88047577 2.8802438h2.46288696c.36129613 0 .65435889-.2927327.65435889-.6543838 0-.3613099-.29306276-.6543838-.65435889-.6543838h-2.46288696c-.86656501 0-1.57141676-.7048784-1.57141676-1.5714762v-2.4827688l43.35861449-.086693-1.1591021 4.140938h-34.1861742c-.36129622 0-.65435889.2930739-.65435889.6543838 0 .3616511.29306267.6543838.65435889.6543838h6.2924902v2.3473202h-1.9760412c-1.3182705 0-2.3905595 1.0726707-2.3905595 2.39065v1.413851c0 .6015009.489234 1.0907533 1.0907121 1.0907533h19.989676c.6014779 0 1.0907119-.4892524 1.0907119-1.0907533v-1.413851c0-1.3179793-1.0722889-2.39065-2.3905595-2.39065h-1.9760411v-2.4227211l9.0686425-.1481831c.4730853 0 1.9121045.0493943 4.3170576.1481831 1.2756246-.2961445 2.2291873-1.4408043 2.2291873-2.8048429l.0494693-31.66766967c.0003411-1.58819405-1.2916596-2.88024373-2.8797934-2.88024373zm14.04312953 37.4281572h6.422475v.233026c0 .709655.577255 1.286932 1.2872243 1.286932h3.1107636v.8273622h-10.8204629zm14.1055632 3.6564288c.5963604 0 1.0815004.4851583 1.0815004 1.0815414v1.1958369h-19.5536642v-1.1958369c0-.5963831.485481-1.0815414 1.0818415-1.0815414zm12.3297871-10.3282089h-.9416218c.0133055-.0740361-19.0630655-.0740361-19.0497601 0h-22.05851469v-21.85361929h42.04989659zm0-23.16272802h-42.00179202v-4.71340535c0-.86625662.70485175-1.57113509 1.57141676-1.57113509h38.85895856c.866565 0 1.5714167.70487847 1.5714167 1.57147634z"/><path d="m4.229839 2.41463415c-.99957522 0-1.81269614.81227698-1.81269614 1.81081473s.81312092 1.81113649 1.81269614 1.81113649c.99957521 0 1.81301814-.81259874 1.81301814-1.81113649s-.81344293-1.81081473-1.81301814-1.81081473zm0 2.3876118c-.31816376 0-.57739644-.25864186-.57739644-.57679707 0-.31783354.25923268-.57679708.57739644-.57679708.31848576 0 .57739635.25896354.57739635.57679708 0 .31815521-.25891059.57679707-.57739635.57679707zm4.83460776-2.3876118c-.99957519 0-1.81301819.81227698-1.81301819 1.81081473s.813443 1.81113649 1.81301819 1.81113649c.99957524 0 1.81269614-.81259874 1.81269614-1.81113649s-.813443-1.81081473-1.81269614-1.81081473zm0 2.3876118c-.31848576 0-.57739635-.25864186-.57739635-.57679707 0-.31783354.25891059-.57679708.57739635-.57679708.31816375 0 .57739634.25896354.57739634.57679708 0 .31815521-.25923259.57679707-.57739634.57679707zm6.04253514-2.3876118c-.9995753 0-1.8126962.81227698-1.8126962 1.81081473s.8131209 1.81113649 1.8126962 1.81113649c.9995752 0 1.8130181-.81259874 1.8130181-1.81113649s-.8134429-1.81081473-1.8130181-1.81081473zm0 2.3876118c-.3181638 0-.5773964-.25864186-.5773964-.57679707 0-.31783354.2592326-.57679708.5773964-.57679708.3184857 0 .5773963.25896354.5773963.57679708 0 .31815521-.2589106.57679707-.5773963.57679707z"/></g></g></svg>