<svg height="45" viewBox="0 0 61 45" width="61" xmlns="http://www.w3.org/2000/svg"><g fill="none"><path d="m56.3592073 0h-5.1168293c-.3407926 0-.617378.2724398-.617378.60812454 0 .33568475.2765854.60812455.617378.60812455h5.1168293c1.6039482 0 2.9090854 1.28557528 2.9090854 2.8642666v36.83896861c0 1.5799076-1.3051372 2.8642666-2.9090854 2.8642666h-5.7342073v-9.1206519-9.7299927-7.1418146c0-1.762345-1.4557774-3.1963026-3.244939-3.1963026h-7.2504878-9.8780488-9.8780488-7.2504878c-1.7891616 0-3.24493902 1.4339576-3.24493902 3.1963026v7.1418146 2.4324982c0 .3356847.27658532.6081245.61737802.6081245s.6173781-.2724398.6173781-.6081245v-1.8243737h8.6432927v8.5137437h-8.6432927v-3.0406228c0-.3356847-.2765854-.6081245-.6173781-.6081245s-.61737802.2724398-.61737802.6081245v3.6487473 9.1218682h-5.73420732c-1.60394817 0-2.90908536-1.2855753-2.90908536-2.8642666v-36.84018491c0-1.57990757 1.30513719-2.8642666 2.90908536-2.8642666h42.15951224c.3407926 0 .617378-.2724398.617378-.60812455 0-.33568474-.2765854-.60812454-.617378-.60812454h-42.15951224c-2.28553353 0-4.14384146 1.83045488-4.14384146 4.08051569v36.83896861c0 2.2512771 1.85830793 4.0805157 4.14384146 4.0805157h6.35158534 9.8780488 9.8780488 9.8780488 9.8780488 6.3515853c2.2855336 0 4.1438415-1.8304549 4.1438415-4.0805157v-36.83896861c0-2.25006081-1.8583079-4.08051569-4.1438415-4.08051569zm-35.3683536 25.5412308h8.6432926v8.5137437h-8.6432926zm9.8780487 0h8.6432927v8.5137437h-8.6432927zm9.8780488 0h8.6432927v8.5137437h-8.6432927zm8.6432927-7.7499391v6.5336901h-8.6432927v-8.5137437h6.6331098c1.108811 0 2.0101829.8878619 2.0101829 1.9800536zm-9.8780488 6.5336901h-8.6432927v-8.5137437h8.6432927zm-9.8780488 0h-8.6432926v-8.5137437h8.6432926zm-18.5213414 0v-6.5336901c0-1.0909755.9013719-1.9800536 2.0101829-1.9800536h6.6331098v8.5137437zm0 10.9462417h8.6432927v8.5137437h-8.6432927zm9.8780488 0h8.6432926v8.5137437h-8.6432926zm9.8780487 0h8.6432927v8.5137437h-8.6432927zm9.8780488 8.5137437v-8.5137437h8.6432927v8.5137437z" fill="#f5654c"/><path d="m12.1006098 12.8571429c2.2242073 0 4.0335365-2.0185715 4.0335365-4.50000004 0-2.48142857-1.8093292-4.5-4.0335365-4.5-2.22420736 0-4.03353663 2.01857143-4.03353663 4.5 0 2.48142854 1.80932927 4.50000004 4.03353663 4.50000004zm-.5762196-7.64871433v1.863c0 .35485714.2581464.64285714.5762196.64285714.3180731 0 .5762195-.288.5762195-.64285714v-1.863c1.3137805.29828572 2.304878 1.59685714 2.304878 3.14871429 0 1.77300004-1.2930366 3.21428574-2.8810975 3.21428574-1.588061 0-2.8810976-1.4412857-2.8810976-3.21428574 0-1.55314286.9910976-2.85042857 2.304878-3.14871429zm8.4800305-.0703699c-.7617622.85394387-1.18125 1.98822938-1.18125 3.19744491s.4194878 2.34350102 1.18125 3.19744492 1.7747561 1.3241944 2.8522866 1.3241944 2.089372-.4702505 2.8522866-1.3241944 1.18125-1.98952128 1.18125-3.19744492c0-1.20921553-.4194878-2.34350104-1.18125-3.19744491-1.5235244-1.70788775-4.1810488-1.70788775-5.7045732 0zm4.8897988 5.48151873c-1.0879024 1.2208426-2.9859695 1.2208426-4.0738719 0-.5451037-.6097754-.8447378-1.42108666-.8447378-2.28407382 0-.86298715.2996341-1.67429842.8435853-2.28407378.5451037-.60977535 1.2688354-.94566855 2.0375122-.94566855.5739147 0 1.1213232.18732505 1.588061.53484533l-1.18125 1.32419436c-.2247256.2519199-.2247256.66145123 0 .91337113.112939.1266059.2604512.18861695.4079634.18861695s.2950244-.06330295.4079634-.18861695l1.18125-1.32419436c.3100061.52451016.4771098 1.1381612.4771098 1.78152587 0 .86298716-.2996342 1.67429842-.8435854 2.28407382zm8.7185854-2.26243454c0 2.48142854 1.8093292 4.50000004 4.0335366 4.50000004 2.2242073 0 4.0335365-2.0185715 4.0335365-4.50000004 0-2.48142857-1.8093292-4.5-4.0335365-4.5-2.2242074 0-4.0335366 2.01857143-4.0335366 4.5zm6.9146341 0c0 1.77300004-1.2930366 3.21428574-2.8810975 3.21428574-1.588061 0-2.8810976-1.4412857-2.8810976-3.21428574 0-1.55314286.9910976-2.85042857 2.3048781-3.14871429v1.863c0 .35485714.2581463.64285714.5762195.64285714.3180731 0 .5762195-.288.5762195-.64285714v-1.863c1.3137805.29828572 2.304878 1.59557143 2.304878 3.14871429zm5.0227134-3.21866866c-.7617622.8538979-1.18125 1.98812235-1.18125 3.19727279s.4194878 2.34337491 1.18125 3.19727281 1.7747561 1.3241231 2.8522866 1.3241231 2.0905244-.4702252 2.8522866-1.3241231 1.18125-1.98812237 1.18125-3.19727281c0-1.20785861-.4194878-2.34208306-1.18125-3.19727279-1.5258293-1.70908764-4.1822012-1.70779581-5.7045732 0zm4.8897988 5.4812236c-1.0879024 1.2207769-2.9859695 1.2207769-4.0738719 0-.5451037-.6097425-.8447378-1.42101011-.8447378-2.28395081 0-.64333004.1671036-1.25694805.4782622-1.78013815l1.18125 1.32412308c.112939.12659908.2604512.1886068.4079634.1886068s.2950244-.06329954.4079634-.1886068c.2247256-.25190634.2247256-.66141562 0-.91332197l-1.18125-1.32412307c.4655854-.3487934 1.0129939-.53610837 1.5869085-.53610837.7686769 0 1.4924086.33587512 2.0375122.94561765.5439512.60974253.8435854 1.42101013.8435854 2.28395083s-.2996342 1.67420831-.8435854 2.28395081zm-41.02836583 5.9313022c0-.6184286-.52704878-1.1224286-1.17375915-1.1224286h-1.51526524v-1.9285714c0-.3548571-.30117074-.6428571-.6722561-.6428571-.37108537 0-.6722561.288-.6722561.6428571v1.9285714h-1.51526524c-.64671037 0-1.17375915.504-1.17375915 1.1224286v1.6122857c0 .6184286.52704878 1.1224286 1.17375915 1.1224286h1.51526524v5.7857143c0 .3548571.30117073.6428571.6722561.6428571.37108536 0 .6722561-.288.6722561-.6428571v-5.7857143h1.51526524c.64671037 0 1.17375915-.504 1.17375915-1.1224286zm-1.3445122 1.449h-4.03353658v-1.2857143h4.03353658zm-2.01676829 24.4285714c.37108536 0 .6722561-.288.6722561-.6428571v-4.5h1.51526524c.64671037 0 1.17375915-.504 1.17375915-1.1224286v-1.6122857c0-.6184286-.52704878-1.1224286-1.17375915-1.1224286h-1.51526524v-3.2142857c0-.3548571-.30117074-.6428571-.6722561-.6428571-.37108537 0-.6722561.288-.6722561.6428571v3.2142857h-1.51526524c-.64671037 0-1.17375915.504-1.17375915 1.1224286v1.6122857c0 .6184286.52704878 1.1224286 1.17375915 1.1224286h1.51526524v4.5c0 .3548571.30117073.6428571.6722561.6428571zm-2.01676829-7.7142857h4.03353658v1.2857143h-4.03353658zm51.76371951-18c-1.8527378 0-3.3612805 1.4412857-3.3612805 3.2142857s1.5085427 3.2142857 3.3612805 3.2142857 3.3612805-1.4412857 3.3612805-3.2142857-1.5085427-3.2142857-3.3612805-3.2142857zm0 5.1428572c-1.1119116 0-2.0167683-.8652858-2.0167683-1.9285715s.9048567-1.9285714 2.0167683-1.9285714 2.0167683.8652857 2.0167683 1.9285714-.9048567 1.9285715-2.0167683 1.9285715zm0 2.5714285c-1.8527378 0-3.3612805 1.4412857-3.3612805 3.2142857s1.5085427 3.2142858 3.3612805 3.2142858 3.3612805-1.4412858 3.3612805-3.2142858-1.5085427-3.2142857-3.3612805-3.2142857zm0 5.1428572c-1.1119116 0-2.0167683-.8652857-2.0167683-1.9285715 0-1.0632857.9048567-1.9285714 2.0167683-1.9285714s2.0167683.8652857 2.0167683 1.9285714c0 1.0632858-.9048567 1.9285715-2.0167683 1.9285715zm0 3.8571428c-1.8527378 0-3.3612805 1.4412857-3.3612805 3.2142857s1.5085427 3.2142858 3.3612805 3.2142858 3.3612805-1.4412858 3.3612805-3.2142858-1.5085427-3.2142857-3.3612805-3.2142857zm0 5.1428572c-1.1119116 0-2.0167683-.8652857-2.0167683-1.9285715 0-1.0632857.9048567-1.9285714 2.0167683-1.9285714s2.0167683.8652857 2.0167683 1.9285714c0 1.0632858-.9048567 1.9285715-2.0167683 1.9285715z" fill="#f56b53"/></g></svg>