<svg height="45" viewBox="0 0 62 45" width="62" xmlns="http://www.w3.org/2000/svg"><g fill="none" fill-rule="evenodd"><path d="m0 28.0771412v14.8946763c0 1.0782637.88661593 1.9516085 1.98126464 1.9516085h56.46604216c1.0946487 0 1.9812646-.8733448 1.9812646-1.9516085v-14.8946763z"/><path d="m58.4473068 42.8176404h-56.46604216c-1.09464871 0-1.98126464-.9423391-1.98126464-2.1057856v2.1057856c0 1.1634465.88661593 2.1057856 1.98126464 2.1057856h56.46604216c1.0946487 0 1.9812646-.9423391 1.9812646-2.1057856v-2.1057856c0 1.1634465-.8866159 2.1057856-1.9812646 2.1057856z" fill="#dcdcdc"/><g fill-rule="nonzero"><g fill="#f56f56"><path d="m59.3597398 44.923426h-4.0576014c-.2731458 0-.4948294-.2238423-.4948294-.499648v-17.2508459c0-.2758056.2216836-.4996479.4948294-.4996479h6.0369192c.2731459 0 .4948294.2238423.4948294.4996479v15.2532533c0 1.3770298-1.1094076 2.4972406-2.4741472 2.4972406zm-3.5627719-.999296h3.5627719c.8184479 0 1.4844884-.6725261 1.4844884-1.4989439v-14.752606h-5.0472603z"/><path d="m55.7177951 44.923426h-6.0369191c-.2731459 0-.4948295-.2238423-.4948295-.499648v-17.2508459c0-.2758056.2216836-.4996479.4948295-.4996479h6.0369191c.2731459 0 .4948295.2238423.4948295.4996479v17.2518452c0 .2758057-.2206939.4986487-.4948295.4986487zm-5.5420897-.999296h5.0472603v-16.2515499h-5.0472603zm-1.4844883.999296h-6.0369192c-.2731459 0-.4948295-.2238423-.4948295-.499648v-17.2508459c0-.2758056.2216836-.4996479.4948295-.4996479h6.0369192c.2731458 0 .4948294.2238423.4948294.4996479v17.2518452c0 .2758057-.2216836.4986487-.4948294.4986487zm-5.5420898-.999296h5.0472603v-16.2515499h-5.0472603z"/><path d="m43.0699546 44.923426h-6.0369192c-.2731458 0-.4948294-.2238423-.4948294-.499648v-17.2508459c0-.2758056.2216836-.4996479.4948294-.4996479h6.0369192c.2731459 0 .4948295.2238423.4948295.4996479v17.2518452c0 .2758057-.220694.4986487-.4948295.4986487zm-5.5420897-.999296h5.0472603v-16.2515499h-5.0472603z"/><path d="m37.4486922 44.923426h-6.0369192c-.2731459 0-.4948295-.2238423-.4948295-.499648v-17.2508459c0-.2758056.2216836-.4996479.4948295-.4996479h6.0369192c.2731458 0 .4948294.2238423.4948294.4996479v17.2518452c0 .2758057-.2216836.4986487-.4948294.4986487zm-5.5420898-.999296h5.0472603v-16.2515499h-5.0472603zm-1.4844883.999296h-6.0369192c-.2731459 0-.4948295-.2238423-.4948295-.499648v-17.2508459c0-.2758056.2216836-.4996479.4948295-.4996479h6.0369192c.2731458 0 .4948294.2238423.4948294.4996479v17.2518452c0 .2758057-.2216836.4986487-.4948294.4986487zm-5.5420898-.999296h5.0472603v-16.2515499h-5.0472603z"/><path d="m24.8008516 44.923426h-6.0369192c-.2731458 0-.4948294-.2238423-.4948294-.499648v-17.2508459c0-.2758056.2216836-.4996479.4948294-.4996479h6.0369192c.2731459 0 .4948295.2238423.4948295.4996479v17.2518452c0 .2758057-.2216836.4986487-.4948295.4986487zm-5.5420897-.999296h5.0472603v-16.2515499h-5.0472603z"/><path d="m19.1795892 44.923426h-6.0369192c-.2731459 0-.4948295-.2238423-.4948295-.499648v-17.2508459c0-.2758056.2216836-.4996479.4948295-.4996479h6.0369192c.2731458 0 .4948294.2238423.4948294.4996479v17.2518452c0 .2758057-.2216836.4986487-.4948294.4986487zm-5.5420898-.999296h5.0472603v-16.2515499h-5.0472603zm-1.4844883.999296h-6.0369192c-.27314585 0-.49482944-.2238423-.49482944-.499648v-17.2508459c0-.2758056.22168359-.4996479.49482944-.4996479h6.0369192c.2731458 0 .4948294.2238423.4948294.4996479v17.2518452c0 .2758057-.2206939.4986487-.4948294.4986487zm-5.54208976-.999296h5.04726026v-16.2515499h-5.04726026z"/><path d="m6.53174863 44.923426h-4.05760142c-1.36374994 0-2.47414721-1.1202108-2.47414721-2.4982399v-15.252254c0-.2758056.22168359-.4996479.49482944-.4996479h6.03691919c.27314585 0 .49482944.2238423.49482944.4996479v17.2518452c0 .2758057-.22168359.4986487-.49482944.4986487zm-5.54208975-17.2508459v14.7536053c0 .8264178.66604043 1.4989439 1.48448833 1.4989439h3.56277198v-16.2525492z"/></g><path d="m59.3405851 44.923426h-56.8472832c-1.37430801 0-2.4933019-1.1202108-2.4933019-2.4982399v-15.252254c0-.2758056.22339985-.4996479.49866038-.4996479h60.83656632c.2752605 0 .4986603.2238423.4986603.4996479v15.2532533c0 1.3770298-1.1179965 2.4972406-2.4933019 2.4972406zm-58.34326434-17.2508459v14.7536053c0 .8264178.67119687 1.4989439 1.49598114 1.4989439h56.8472832c.8247843 0 1.4959812-.6725261 1.4959812-1.4989439v-14.7536053z" fill="#f5543a"/></g><path d="m0 1.93123731c0-1.06700861.88661593-1.93123731 1.98126464-1.93123731h56.46604216c1.0946487 0 1.9812646.8642287 1.9812646 1.93123731v24.74204689h-60.4285714z"/><path d="m61.3352267 28.0771412h-60.83656632c-.27526053 0-.49866038-.2197281-.49866038-.4904646v-25.13435319c0-1.35270159 1.11899389-2.45232341 2.4933019-2.45232341h56.8472832c1.3753054 0 2.4933019 1.09962182 2.4933019 2.45232341v25.13435319c0 .2707365-.2233998.4904646-.4986603.4904646zm-60.33790594-.9809293h59.83924554v-24.64388849c0-.81122858-.6711969-1.47139404-1.4959812-1.47139404h-56.8472832c-.82478427 0-1.49598114.66016546-1.49598114 1.47139404z" fill="#ff4d31" fill-rule="nonzero"/><g fill="#f5553b"><path d="m49.949 30.883h11.231v3.81h-11.231z" transform="matrix(0 1 -1 0 88.353 -22.777)"/><path d="m43.571 30.883h11.23v3.81h-11.23z" transform="matrix(0 1 -1 0 81.974 -16.398)"/><path d="m37.949 30.883h11.231v3.81h-11.231z" transform="matrix(0 1 -1 0 76.353 -10.777)"/><path d="m25.302 30.883h11.23v3.81h-11.23z" transform="matrix(0 1 -1 0 63.705 1.871)"/><path d="m18.634 30.883h11.231v3.81h-11.231z" transform="matrix(0 1 -1 0 57.038 8.538)"/><path d="m7.032 30.883h11.231v3.81h-11.231z" transform="matrix(0 1 -1 0 45.436 20.14)"/><path d="m.911 30.383h11.231v3.811h-11.231z" transform="matrix(0 1 -1 0 38.816 25.762)"/></g><path d="m50.595 5.612h7.019v7.026h-7.019z" transform="matrix(0 1 -1 0 63.23 -44.98)"/><path d="m50.595 14.035h7.019v7.027h-7.019z" transform="matrix(0 1 -1 0 71.653 -36.557)"/><path d="m42.163 5.612h7.019v7.026h-7.019z" transform="matrix(0 1 -1 0 54.798 -36.548)"/><path d="m42.163 14.035h7.019v7.027h-7.019z" transform="matrix(0 1 -1 0 63.221 -28.125)"/><path d="m32.326 5.612h7.019v7.026h-7.019z" transform="matrix(0 1 -1 0 44.961 -26.711)"/><path d="m32.326 14.035h7.019v7.027h-7.019z" transform="matrix(0 1 -1 0 53.384 -18.288)"/><path d="m11.2425249 5.61542825c-1.54975917 0-2.81063121-1.25956341-2.81063121-2.80771413s1.26087204-2.80771412 2.81063121-2.80771412c1.5497592 0 2.8106312 1.2595634 2.8106312 2.80771412s-1.2618751 2.80771413-2.8106312 2.80771413zm0-4.61338895c-.9970619 0-1.80755083.8106498-1.80755083 1.80567482 0 .99502503.81048893 1.80567483 1.80755083 1.80567483s1.8075509-.8106498 1.8075509-1.80567483c0-.99502502-.8114921-1.80567482-1.8075509-1.80567482zm0 13.0365313c-1.54975917 0-2.81063121-1.2595634-2.81063121-2.8077141 0-1.54815073 1.26087204-2.80771413 2.81063121-2.80771413 1.5497592 0 2.8106312 1.2595634 2.8106312 2.80771413 0 1.5481507-1.2618751 2.8077141-2.8106312 2.8077141zm0-4.61338893c-.9970619 0-1.80755083.81064983-1.80755083 1.80567483s.81048893 1.8056748 1.80755083 1.8056748 1.8075509-.8106498 1.8075509-1.8056748-.8114921-1.80567483-1.8075509-1.80567483zm-8.43189367-3.80975342c-1.54975919 0-2.81063123-1.25956341-2.81063123-2.80771413s1.26087204-2.80771412 2.81063123-2.80771412 2.81063123 1.2595634 2.81063123 2.80771412-1.26087204 2.80771413-2.81063123 2.80771413zm0-4.61338895c-.9970619 0-1.80755085.8106498-1.80755085 1.80567482 0 .99502503.81048895 1.80567483 1.80755085 1.80567483s1.80755085-.8106498 1.80755085-1.80567483c0-.99502502-.81048895-1.80567482-1.80755085-1.80567482zm0 13.0365313c-1.54975919 0-2.81063123-1.2595634-2.81063123-2.8077141 0-1.54815073 1.26087204-2.80771413 2.81063123-2.80771413s2.81063123 1.2595634 2.81063123 2.80771413c0 1.5481507-1.26087204 2.8077141-2.81063123 2.8077141zm0-4.61338893c-.9970619 0-1.80755085.81064983-1.80755085 1.80567483s.81048895 1.8056748 1.80755085 1.8056748 1.80755085-.8106498 1.80755085-1.8056748-.81048895-1.80567483-1.80755085-1.80567483z" fill="#f57860" fill-rule="nonzero" transform="translate(16.864 7.02)"/><g fill="#eb7864" transform="translate(2.81 5.615)"><path d="m12.5093166 3.20878723h-4.62148081c-.27704794 0-.50189844-.21530867-.50189844-.48059971v-2.21268109c0-.26529104.2248505-.48059971.50189844-.48059971h4.62148081c.2770479 0 .5018984.21530867.5018984.48059971v2.21268109c0 .26529104-.2238467.48059971-.5018984.48059971zm-4.11958238-.96119943h3.61768388v-1.25148165h-3.61768388zm4.11958238 5.38560041h-4.62148081c-.27704794 0-.50189844-.21530867-.50189844-.48059972v-2.21268108c0-.26529105.2248505-.48059972.50189844-.48059972h4.62148081c.2770479 0 .5018984.21530867.5018984.48059972v2.21268108c0 .26529105-.2238467.48059972-.5018984.48059972zm-4.11958238-.96119943h3.61768388v-1.25148166h-3.61768388zm4.11958238 5.38656162h-4.62148081c-.27704794 0-.50189844-.2153087-.50189844-.4805997v-2.21268112c0-.26529104.2248505-.48059971.50189844-.48059971h4.62148081c.2770479 0 .5018984.21530867.5018984.48059971v2.21268112c0 .265291-.2238467.4805997-.5018984.4805997zm-4.11958238-.9611994h3.61768388v-1.2514817h-3.61768388zm4.11958238 5.3865616h-4.62148081c-.27704794 0-.50189844-.2153087-.50189844-.4805998v-2.2136422c0-.2652911.2248505-.4805998.50189844-.4805998h4.62148081c.2770479 0 .5018984.2153087.5018984.4805998v2.2136422c0 .2652911-.2238467.4805998-.5018984.4805998zm-4.11958238-.9611995h3.61768388v-1.2524428h-3.61768388zm-2.81163503-12.31392587h-4.62148077c-.27704794 0-.50189844-.21530867-.50189844-.48059971v-2.21268109c0-.26529104.2248505-.48059971.50189844-.48059971h4.62148077c.27704794 0 .50189844.21530867.50189844.48059971v2.21268109c0 .26529104-.2248505.48059971-.50189844.48059971zm-4.11958234-.96119943h3.61768391v-1.25148165h-3.61768391zm4.11958234 5.38560041h-4.62148077c-.27704794 0-.50189844-.21530867-.50189844-.48059972v-2.21268108c0-.26529105.2248505-.48059972.50189844-.48059972h4.62148077c.27704794 0 .50189844.21530867.50189844.48059972v2.21268108c0 .26529105-.2248505.48059972-.50189844.48059972zm-4.11958234-.96119943h3.61768391v-1.25148166h-3.61768391zm4.11958234 5.38656162h-4.62148077c-.27704794 0-.50189844-.2153087-.50189844-.4805997v-2.21268112c0-.26529104.2248505-.48059971.50189844-.48059971h4.62148077c.27704794 0 .50189844.21530867.50189844.48059971v2.21268112c0 .265291-.2248505.4805997-.50189844.4805997zm-4.11958234-.9611994h3.61768391v-1.2514817h-3.61768391zm4.11958234 5.3865616h-4.62148077c-.27704794 0-.50189844-.2153087-.50189844-.4805998v-2.2136422c0-.2652911.2248505-.4805998.50189844-.4805998h4.62148077c.27704794 0 .50189844.2153087.50189844.4805998v2.2136422c0 .2652911-.2248505.4805998-.50189844.4805998zm-4.11958234-.9611995h3.61768391v-1.2524428h-3.61768391z" fill-rule="nonzero"/><path d="m46.0140484 7.63318821h-6.9322212c-.2770479 0-.5018984-.21530867-.5018984-.48059972v-1.10634054c0-.26529104.2248505-.48059972.5018984-.48059972.277048 0 .5018985.21530868.5018985.48059972v.62574083h5.9284243v-2.58178167c0-.26529104.2248505-.48059971.5018984-.48059971s.5018984.21530867.5018984.48059971v3.06238138c0 .26529105-.2248505.48059972-.5018984.48059972zm-6.9322212-3.31902163c-.2770479 0-.5018984-.21530868-.5018984-.48059972v-3.31806043c0-.26529104.2248505-.48059971.5018984-.48059971h6.9322212c.2770479 0 .5018984.21530867.5018984.48059971v1.10537935c0 .26529104-.2248505.48059971-.5018984.48059971s-.5018984-.21530867-.5018984-.48059971v-.62477963h-5.9284243v2.83746071c0 .26529104-.2248505.48059972-.5018985.48059972zm16.174179 3.31902163h-6.9312174c-.2770479 0-.5018984-.21530867-.5018984-.48059972v-1.10634054c0-.26529104.2248505-.48059972.5018984-.48059972s.5018984.21530868.5018984.48059972v.62574083h5.9274205v-2.58178167c0-.26529104.2248505-.48059971.5018985-.48059971.2770479 0 .5018984.21530867.5018984.48059971v3.06238138c0 .26529105-.2248505.48059972-.5018984.48059972zm-6.9312174-3.31902163c-.2770479 0-.5018984-.21530868-.5018984-.48059972v-3.31806043c0-.26529104.2248505-.48059971.5018984-.48059971h6.9312174c.2770479 0 .5018984.21530867.5018984.48059971v1.10537935c0 .26529104-.2248505.48059971-.5018984.48059971-.277048 0-.5018985-.21530867-.5018985-.48059971v-.62477963h-5.9274205v2.83746071c0 .26529104-.2248505.48059972-.5018984.48059972zm-11.5537019 12.22741792h-6.9312174c-.277048 0-.5018985-.2153086-.5018985-.4805997v-1.1053793c0-.2652911.2248505-.4805998.5018985-.4805998.2770479 0 .5018984.2153087.5018984.4805998v.6247796h5.9274205v-2.5817817c0-.265291.2248505-.4805997.5018985-.4805997.2770479 0 .5018984.2153087.5018984.4805997v3.0623814c0 .2652911-.2248505.4805997-.5018984.4805997zm-6.9312174-3.3199828c-.277048 0-.5018985-.2153087-.5018985-.4805997v-3.31806045c0-.26529105.2248505-.48059972.5018985-.48059972h6.9312174c.2770479 0 .5018984.21530867.5018984.48059972v1.10537935c0 .265291-.2248505.4805997-.5018984.4805997-.277048 0-.5018985-.2153087-.5018985-.4805997v-.62477964h-5.9274205v2.83746074c0 .2662522-.2248505.4805997-.5018984.4805997zm16.1741789 3.3199828h-6.9322212c-.2770479 0-.5018984-.2153086-.5018984-.4805997v-1.1053793c0-.2652911.2248505-.4805998.5018984-.4805998.277048 0 .5018985.2153087.5018985.4805998v.6247796h5.9284243v-2.5817817c0-.265291.2248505-.4805997.5018984-.4805997s.5018984.2153087.5018984.4805997v3.0623814c0 .2652911-.2248505.4805997-.5018984.4805997zm-6.9322212-3.3199828c-.2770479 0-.5018984-.2153087-.5018984-.4805997v-3.31806045c0-.26529105.2248505-.48059972.5018984-.48059972h6.9322212c.2770479 0 .5018984.21530867.5018984.48059972v1.10537935c0 .265291-.2248505.4805997-.5018984.4805997s-.5018984-.2153087-.5018984-.4805997v-.62477964h-5.9284243v2.83746074c0 .2662522-.2248505.4805997-.5018985.4805997zm16.174179 3.3199828h-6.9312174c-.2770479 0-.5018984-.2153086-.5018984-.4805997v-1.1053793c0-.2652911.2248505-.4805998.5018984-.4805998s.5018984.2153087.5018984.4805998v.6247796h5.9274205v-2.5817817c0-.265291.2248505-.4805997.5018985-.4805997.2770479 0 .5018984.2153087.5018984.4805997v3.0623814c0 .2652911-.2248505.4805997-.5018984.4805997zm-6.9312174-3.3199828c-.2770479 0-.5018984-.2153087-.5018984-.4805997v-3.31806045c0-.26529105.2248505-.48059972.5018984-.48059972h6.9312174c.2770479 0 .5018984.21530867.5018984.48059972v1.10537935c0 .265291-.2248505.4805997-.5018984.4805997-.277048 0-.5018985-.2153087-.5018985-.4805997v-.62477964h-5.9274205v2.83746074c0 .2662522-.2248505.4805997-.5018984.4805997zm-10.9145938-6.20231639h-7.3652405c-.2943963 0-.5333266-.22536836-.5333266-.50305437v-1.15803116c0-.27768601.2389303-.50305437.5333266-.50305437s.5333266.22536836.5333266.50305437v.65497679h6.2985873v-2.70240808c0-.27768601.2389303-.50305437.5333266-.50305437s.5333266.22536836.5333266.50305437v3.20546245c0 .27768601-.2389303.50305437-.5333266.50305437zm-7.3652405-2.80771412c-.2943963 0-.5333266-.21190296-.5333266-.47299767v-3.26557586c0-.26109471.2389303-.47299766.5333266-.47299766h7.3652405c.2943963 0 .5333266.21190295.5333266.47299766v1.08789463c0 .26109471-.2389303.47299766-.5333266.47299766s-.5333266-.21190295-.5333266-.47299766v-.61489696h-6.2985873v2.79257819c0 .26109471-.2389303.47299767-.5333266.47299767z"/></g></g></svg>